<svg width="15" height="19" viewBox="0 0 15 19" fill="none" xmlns="http://www.w3.org/2000/svg">
<path d="M14.6903 14.5898C14.6346 14.5548 14.2152 14.2707 13.7953 13.4111C13.0241 11.8327 12.8622 9.6091 12.8622 8.02173C12.8622 8.01482 12.8621 8.00798 12.8618 8.0011C12.8534 5.90319 11.5544 4.09471 9.69564 3.28328V2.0423C9.69564 0.916165 8.74987 0 7.58736 0H7.41263C6.25012 0 5.30435 0.916165 5.30435 2.0423V3.28321C3.43933 4.09725 2.13778 5.91497 2.13778 8.02173C2.13778 9.6091 1.97591 11.8326 1.20472 13.4111C0.784815 14.2706 0.365432 14.5548 0.309672 14.5898C0.0748593 14.6949 -0.0409182 14.9377 0.0131014 15.1837C0.0676393 15.4322 0.307784 15.6035 0.570033 15.6035H4.64083C4.66356 17.1124 5.937 18.3333 7.50001 18.3333C9.06303 18.3333 10.3365 17.1124 10.3592 15.6035H14.43C14.6922 15.6035 14.9324 15.4322 14.9869 15.1837C15.0409 14.9377 14.9251 14.6948 14.6903 14.5898ZM6.41514 2.0423C6.41514 1.50946 6.86263 1.07597 7.41267 1.07597H7.58739C8.13744 1.07597 8.58492 1.50946 8.58492 2.0423V2.93452C8.23437 2.86444 7.87149 2.82756 7.49987 2.82756C7.12836 2.82756 6.76558 2.8644 6.41518 2.93441V2.0423H6.41514ZM7.50001 17.2574C6.54947 17.2574 5.77413 16.5191 5.75158 15.6035H9.24841C9.2259 16.5191 8.45056 17.2574 7.50001 17.2574ZM9.73633 14.5274C9.73622 14.5274 1.83573 14.5274 1.83573 14.5274C1.93181 14.3826 2.0296 14.2187 2.12679 14.0334C2.87114 12.6139 3.24857 10.5913 3.24857 8.02173C3.24857 5.75094 5.1557 3.90353 7.49983 3.90353C9.84396 3.90353 11.7511 5.75094 11.7511 8.02352C11.7511 8.03014 11.7512 8.03673 11.7515 8.04332C11.7536 10.6025 12.131 12.6179 12.8732 14.0334C12.9704 14.2187 13.0682 14.3826 13.1643 14.5274H9.73633Z" fill="#6C757D"/>
</svg>
