<svg width="22" height="15" viewBox="0 0 22 15" fill="none" xmlns="http://www.w3.org/2000/svg">
<path d="M19.7083 0H2.29165C1.0285 0 0 1.0285 0 2.2917V12.375C0 13.6382 1.0285 14.6667 2.29165 14.6667H19.7083C20.9715 14.6667 22 13.6382 22 12.375V2.2917C22 1.0285 20.9715 0 19.7083 0ZM21.0833 12.375C21.0833 13.1331 20.4664 13.75 19.7083 13.75H2.29165C1.53355 13.75 0.916652 13.1331 0.916652 12.375V2.2917C0.916652 1.5336 1.53355 0.916695 2.29165 0.916695H19.7083C20.4664 0.916695 21.0833 1.5336 21.0833 2.2917V12.375H21.0833Z" fill="#6C757D"/>
<path d="M21.1192 1.27694C20.9771 1.06794 20.692 1.01569 20.4821 1.15779L11.9313 7.05742C11.3648 7.44427 10.6333 7.44427 10.0678 7.05742L1.5 0.999985C1.29009 0.856083 1.005 0.910137 0.862898 1.11914C0.720801 1.32814 0.773996 1.61323 0.982996 1.75623L9.55075 7.81363C9.99075 8.11522 10.4958 8.26553 11 8.26553C11.5042 8.26553 12.0093 8.11518 12.4493 7.81363L21 1.91399C21.209 1.77099 21.2622 1.48594 21.1192 1.27694Z" fill="#6C757D"/>
<path d="M7 9C6.83775 8.8066 6.5481 8.78 6.35375 8.94135L1.99741 12.0221C1.80307 12.1844 1.77651 12.474 1.93876 12.6684C2.02951 12.7775 2.15966 12.8334 2.29166 12.8334C2.39526 12.8334 2.49976 12.7985 2.58501 12.727L6.94135 9.64625C7.1357 9.484 7.16225 9.1943 7 9Z" fill="#6C757D"/>
<path d="M20.0026 12.0221L16 9C15.8048 8.83865 15.516 8.86525 15.3538 9.05865C15.1915 9.2539 15.2181 9.54265 15.4124 9.7049L19.415 12.727C19.5012 12.7985 19.6048 12.8334 19.7084 12.8334C19.8395 12.8334 19.9696 12.7775 20.0613 12.6684C20.2235 12.4731 20.1969 12.1844 20.0026 12.0221Z" fill="#6C757D"/>
</svg>
