<svg width="16" height="14" viewBox="0 0 16 14" fill="none" xmlns="http://www.w3.org/2000/svg">
<path d="M15.75 0H0.159091C0.0715909 0 0 0.0715909 0 0.159091V1.43182C0 1.51932 0.0715909 1.59091 0.159091 1.59091H15.75C15.8375 1.59091 15.9091 1.51932 15.9091 1.43182V0.159091C15.9091 0.0715909 15.8375 0 15.75 0ZM15.75 12.4091H0.159091C0.0715909 12.4091 0 12.4807 0 12.5682V13.8409C0 13.9284 0.0715909 14 0.159091 14H15.75C15.8375 14 15.9091 13.9284 15.9091 13.8409V12.5682C15.9091 12.4807 15.8375 12.4091 15.75 12.4091ZM15.75 6.20455H0.159091C0.0715909 6.20455 0 6.27614 0 6.36364V7.63636C0 7.72386 0.0715909 7.79545 0.159091 7.79545H15.75C15.8375 7.79545 15.9091 7.72386 15.9091 7.63636V6.36364C15.9091 6.27614 15.8375 6.20455 15.75 6.20455Z" fill="#6C757D"/>
</svg>
